<svg xmlns="http://www.w3.org/2000/svg" viewBox="0 0 387 389.06"><defs><style>.cls-1,.cls-2,.cls-3,.cls-4,.cls-5,.cls-6,.cls-7,.cls-8,.cls-9{fill:none;stroke-miterlimit:10;stroke-width:40px;}.cls-1{stroke:#cc9300;}.cls-2{stroke:#ffb900;}.cls-3{stroke:#659814;}.cls-4{stroke:#7eba00;}.cls-5{stroke:#cc4727;}.cls-6{stroke:#f15023;}.cls-7{stroke:#be3f1b;}.cls-8{stroke:#0080bb;}.cls-9{stroke:#00a4ee;}</style></defs><g id="图层_4" data-name="图层 4"><line class="cls-1" x1="302.96" y1="236.75" x2="254.04" y2="236.54"/><path class="cls-2" d="M380.92,300.22a66,66,0,1,1-66,66L315,365V248" transform="translate(-79.96 -63.46)"/></g><g id="图层_1" data-name="图层 1"><line class="cls-3" x1="235.04" y1="85.54" x2="235.04" y2="133.54"/><path class="cls-3" d="M314.91,197.72" transform="translate(-79.96 -63.46)"/><path class="cls-4" d="M314.91,149.85a66,66,0,1,1,66,66L376,216H265" transform="translate(-79.96 -63.46)"/></g><g id="图层_2" data-name="图层 2"><line class="cls-5" x1="85.04" y1="152.05" x2="133.91" y2="152.05"/><line class="cls-6" x1="152.06" y1="84.03" x2="152.04" y2="205.54"/><path class="cls-6" d="M166,215.52a66,66,0,1,1,66-66" transform="translate(-79.96 -63.46)"/><path class="cls-6" d="M232,149.49" transform="translate(-79.96 -63.46)"/><path class="cls-6" d="M100,149.49a66,66,0,0,1,66-66" transform="translate(-79.96 -63.46)"/><path class="cls-6" d="M166,215.52" transform="translate(-79.96 -63.46)"/><path class="cls-7" d="M214.88,215.52" transform="translate(-79.96 -63.46)"/><path class="cls-7" d="M166,215.52" transform="translate(-79.96 -63.46)"/><path class="cls-6" d="M232,268.54" transform="translate(-79.96 -63.46)"/></g><g id="图层_3" data-name="图层 3"><line class="cls-8" x1="152.05" y1="303.04" x2="152.05" y2="254.16"/><path class="cls-9" d="M232,366.5a66,66,0,1,1-66-66l7-.47H282" transform="translate(-79.96 -63.46)"/></g></svg>